<svg xmlns="http://www.w3.org/2000/svg" viewBox="0 0 138.6 93.81"><defs><style>.cls-1{opacity:0.47;}.cls-2,.cls-3,.cls-4,.cls-6{fill:none;}.cls-2{stroke:#1d1d1b;}.cls-2,.cls-3,.cls-4,.cls-5,.cls-6{stroke-miterlimit:10;}.cls-2,.cls-6{stroke-width:0.57px;}.cls-3,.cls-4,.cls-5,.cls-6{stroke:lime;}.cls-3,.cls-5{stroke-width:0.61px;}.cls-4{stroke-width:0.27px;}</style></defs><title>virtualdesignstudio</title><g id="Layer_1" data-name="Layer 1"><g class="cls-1"><polygon class="cls-2" points="-716.87 -351.17 886.64 -832.23 2490.16 -351.17 886.64 129.88 -716.87 -351.17"/><line class="cls-2" x1="-283.92" y1="-481.06" x2="1319.6"/><line class="cls-2" x1="-287.93" y1="-479.85" x2="1315.59" y2="1.2"/><line class="cls-2" x1="-291.94" y1="-478.65" x2="1311.58" y2="2.41"/><line class="cls-2" x1="-295.95" y1="-477.45" x2="1307.57" y2="3.61"/><line class="cls-2" x1="-299.96" y1="-476.24" x2="1303.56" y2="4.81"/><line class="cls-2" x1="-303.97" y1="-475.04" x2="1299.55" y2="6.01"/><line class="cls-2" x1="-307.98" y1="-473.84" x2="1295.54" y2="7.22"/><line class="cls-2" x1="-311.98" y1="-472.64" x2="1291.53" y2="8.42"/><line class="cls-2" x1="-315.99" y1="-471.43" x2="1287.52" y2="9.62"/><line class="cls-2" x1="-320" y1="-470.23" x2="1283.52" y2="10.82"/><line class="cls-2" x1="-324.01" y1="-469.03" x2="1279.51" y2="12.03"/><line class="cls-2" x1="-328.02" y1="-467.83" x2="1275.5" y2="13.23"/><line class="cls-2" x1="-332.03" y1="-466.62" x2="1271.49" y2="14.43"/><line class="cls-2" x1="-336.04" y1="-465.42" x2="1267.48" y2="15.63"/><line class="cls-2" x1="-340.05" y1="-464.22" x2="1263.47" y2="16.84"/><line class="cls-2" x1="-344.05" y1="-463.02" x2="1259.46" y2="18.04"/><line class="cls-2" x1="-348.06" y1="-461.81" x2="1255.45" y2="19.24"/><line class="cls-2" x1="-352.07" y1="-460.61" x2="1251.45" y2="20.44"/><line class="cls-2" x1="-356.08" y1="-459.41" x2="1247.44" y2="21.65"/><line class="cls-2" x1="-360.09" y1="-458.21" x2="1243.43" y2="22.85"/><line class="cls-2" x1="-364.1" y1="-457" x2="1239.42" y2="24.05"/><line class="cls-2" x1="-368.11" y1="-455.8" x2="1235.41" y2="25.26"/><line class="cls-2" x1="-372.12" y1="-454.6" x2="1231.4" y2="26.46"/><line class="cls-2" x1="-376.12" y1="-453.39" x2="1227.39" y2="27.66"/><line class="cls-2" x1="-380.13" y1="-452.19" x2="1223.38" y2="28.86"/><line class="cls-2" x1="-384.14" y1="-450.99" x2="1219.38" y2="30.07"/><line class="cls-2" x1="-388.15" y1="-449.79" x2="1215.37" y2="31.27"/><line class="cls-2" x1="-392.16" y1="-448.58" x2="1211.36" y2="32.47"/><line class="cls-2" x1="-396.17" y1="-447.38" x2="1207.35" y2="33.67"/><line class="cls-2" x1="-400.18" y1="-446.18" x2="1203.34" y2="34.88"/><line class="cls-2" x1="-404.19" y1="-444.98" x2="1199.33" y2="36.08"/><line class="cls-2" x1="-408.2" y1="-443.77" x2="1195.32" y2="37.28"/><line class="cls-2" x1="-412.2" y1="-442.57" x2="1191.31" y2="38.48"/><line class="cls-2" x1="-416.21" y1="-441.37" x2="1187.3" y2="39.69"/><line class="cls-2" x1="-420.22" y1="-440.17" x2="1183.3" y2="40.89"/><line class="cls-2" x1="-424.23" y1="-438.96" x2="1179.29" y2="42.09"/><line class="cls-2" x1="-428.24" y1="-437.76" x2="1175.28" y2="43.29"/><line class="cls-2" x1="-432.25" y1="-436.56" x2="1171.27" y2="44.5"/><line class="cls-2" x1="-436.26" y1="-435.36" x2="1167.26" y2="45.7"/><line class="cls-2" x1="-440.27" y1="-434.15" x2="1163.25" y2="46.9"/><line class="cls-2" x1="-444.27" y1="-432.95" x2="1159.24" y2="48.11"/><line class="cls-2" x1="-448.28" y1="-431.75" x2="1155.23" y2="49.31"/><line class="cls-2" x1="-452.29" y1="-430.54" x2="1151.23" y2="50.51"/><line class="cls-2" x1="-456.3" y1="-429.34" x2="1147.22" y2="51.71"/><line class="cls-2" x1="-460.31" y1="-428.14" x2="1143.21" y2="52.92"/><line class="cls-2" x1="-464.32" y1="-426.94" x2="1139.2" y2="54.12"/><line class="cls-2" x1="-468.33" y1="-425.73" x2="1135.19" y2="55.32"/><line class="cls-2" x1="-472.34" y1="-424.53" x2="1131.18" y2="56.52"/><line class="cls-2" x1="-476.34" y1="-423.33" x2="1127.17" y2="57.73"/><line class="cls-2" x1="-480.35" y1="-422.13" x2="1123.16" y2="58.93"/><line class="cls-2" x1="-484.36" y1="-420.92" x2="1119.16" y2="60.13"/><line class="cls-2" x1="-488.37" y1="-419.72" x2="1115.15" y2="61.33"/><line class="cls-2" x1="-492.38" y1="-418.52" x2="1111.14" y2="62.54"/><line class="cls-2" x1="-496.39" y1="-417.32" x2="1107.13" y2="63.74"/><line class="cls-2" x1="-500.4" y1="-416.11" x2="1103.12" y2="64.94"/><line class="cls-2" x1="-504.41" y1="-414.91" x2="1099.11" y2="66.15"/><line class="cls-2" x1="-508.42" y1="-413.71" x2="1095.1" y2="67.35"/><line class="cls-2" x1="-512.42" y1="-412.5" x2="1091.09" y2="68.55"/><line class="cls-2" x1="-516.43" y1="-411.3" x2="1087.08" y2="69.75"/><line class="cls-2" x1="-520.44" y1="-410.1" x2="1083.08" y2="70.96"/><line class="cls-2" x1="-524.45" y1="-408.9" x2="1079.07" y2="72.16"/><line class="cls-2" x1="-528.46" y1="-407.69" x2="1075.06" y2="73.36"/><line class="cls-2" x1="-532.47" y1="-406.49" x2="1071.05" y2="74.56"/><line class="cls-2" x1="-536.48" y1="-405.29" x2="1067.04" y2="75.77"/><line class="cls-2" x1="-540.49" y1="-404.09" x2="1063.03" y2="76.97"/><line class="cls-2" x1="-544.49" y1="-402.88" x2="1059.02" y2="78.17"/><line class="cls-2" x1="-548.5" y1="-401.68" x2="1055.01" y2="79.37"/><line class="cls-2" x1="-552.51" y1="-400.48" x2="1051.01" y2="80.58"/><line class="cls-2" x1="-556.52" y1="-399.28" x2="1047" y2="81.78"/><line class="cls-2" x1="-560.53" y1="-398.07" x2="1042.99" y2="82.98"/><line class="cls-2" x1="-564.54" y1="-396.87" x2="1038.98" y2="84.18"/><line class="cls-2" x1="-568.55" y1="-395.67" x2="1034.97" y2="85.39"/><line class="cls-2" x1="-572.56" y1="-394.47" x2="1030.96" y2="86.59"/><line class="cls-2" x1="-576.56" y1="-393.26" x2="1026.95" y2="87.79"/><line class="cls-2" x1="-580.57" y1="-392.06" x2="1022.94" y2="89"/><line class="cls-2" x1="-584.58" y1="-390.86" x2="1018.94" y2="90.2"/><line class="cls-2" x1="-588.59" y1="-389.65" x2="1014.93" y2="91.4"/><line class="cls-2" x1="-592.6" y1="-388.45" x2="1010.92" y2="92.6"/><line class="cls-2" x1="-596.61" y1="-387.25" x2="1006.91" y2="93.81"/><line class="cls-2" x1="-600.62" y1="-386.05" x2="1002.9" y2="95.01"/><line class="cls-2" x1="-604.63" y1="-384.84" x2="998.89" y2="96.21"/><line class="cls-2" x1="-608.64" y1="-383.64" x2="994.88" y2="97.41"/><line class="cls-2" x1="-612.64" y1="-382.44" x2="990.87" y2="98.62"/><line class="cls-2" x1="-616.65" y1="-381.24" x2="986.87" y2="99.82"/><line class="cls-2" x1="-620.66" y1="-380.03" x2="982.86" y2="101.02"/><line class="cls-2" x1="-624.67" y1="-378.83" x2="978.85" y2="102.22"/><line class="cls-2" x1="-628.68" y1="-377.63" x2="974.84" y2="103.43"/><line class="cls-2" x1="-632.69" y1="-376.43" x2="970.83" y2="104.63"/><line class="cls-2" x1="-636.7" y1="-375.22" x2="966.82" y2="105.83"/><line class="cls-2" x1="-640.71" y1="-374.02" x2="962.81" y2="107.03"/><line class="cls-2" x1="-644.71" y1="-372.82" x2="958.8" y2="108.24"/><line class="cls-2" x1="-648.72" y1="-371.62" x2="954.79" y2="109.44"/><line class="cls-2" x1="-652.73" y1="-370.41" x2="950.79" y2="110.64"/><line class="cls-2" x1="-656.74" y1="-369.21" x2="946.78" y2="111.85"/><line class="cls-2" x1="-660.75" y1="-368.01" x2="942.77" y2="113.05"/><line class="cls-2" x1="-664.76" y1="-366.8" x2="938.76" y2="114.25"/><line class="cls-2" x1="-668.77" y1="-365.6" x2="934.75" y2="115.45"/><line class="cls-2" x1="-672.78" y1="-364.4" x2="930.74" y2="116.66"/><line class="cls-2" x1="-676.78" y1="-363.2" x2="926.73" y2="117.86"/><line class="cls-2" x1="-680.79" y1="-361.99" x2="922.72" y2="119.06"/><line class="cls-2" x1="-684.8" y1="-360.79" x2="918.72" y2="120.26"/><line class="cls-2" x1="-688.81" y1="-359.59" x2="914.71" y2="121.47"/><line class="cls-2" x1="-692.82" y1="-358.39" x2="910.7" y2="122.67"/><line class="cls-2" x1="-696.83" y1="-357.18" x2="906.69" y2="123.87"/><line class="cls-2" x1="-700.84" y1="-355.98" x2="902.68" y2="125.07"/><line class="cls-2" x1="-704.85" y1="-354.78" x2="898.67" y2="126.28"/><line class="cls-2" x1="-708.85" y1="-353.58" x2="894.66" y2="127.48"/><line class="cls-2" x1="-712.86" y1="-352.37" x2="890.65" y2="128.68"/></g><g class="cls-1"><polygon class="cls-2" points="-716.87 -351.17 886.64 -832.23 2490.16 -351.17 886.64 129.88 -716.87 -351.17"/><line class="cls-2" x1="-283.92" y1="-481.06" x2="1319.6"/><line class="cls-2" x1="-299.96" y1="-476.24" x2="1303.56" y2="4.81"/><line class="cls-2" x1="-315.99" y1="-471.43" x2="1287.52" y2="9.62"/><line class="cls-2" x1="-332.03" y1="-466.62" x2="1271.49" y2="14.43"/><line class="cls-2" x1="-348.06" y1="-461.81" x2="1255.45" y2="19.24"/><line class="cls-2" x1="-364.1" y1="-457" x2="1239.42" y2="24.05"/><line class="cls-2" x1="-380.13" y1="-452.19" x2="1223.38" y2="28.86"/><line class="cls-2" x1="-396.17" y1="-447.38" x2="1207.35" y2="33.67"/><line class="cls-2" x1="-412.2" y1="-442.57" x2="1191.31" y2="38.48"/><line class="cls-2" x1="-428.24" y1="-437.76" x2="1175.28" y2="43.29"/><line class="cls-2" x1="-444.27" y1="-432.95" x2="1159.24" y2="48.11"/><line class="cls-2" x1="-460.31" y1="-428.14" x2="1143.21" y2="52.92"/><line class="cls-2" x1="-476.34" y1="-423.33" x2="1127.17" y2="57.73"/><line class="cls-2" x1="-492.38" y1="-418.52" x2="1111.14" y2="62.54"/><line class="cls-2" x1="-508.42" y1="-413.71" x2="1095.1" y2="67.35"/><line class="cls-2" x1="-524.45" y1="-408.9" x2="1079.07" y2="72.16"/><line class="cls-2" x1="-540.49" y1="-404.09" x2="1063.03" y2="76.97"/><line class="cls-2" x1="-556.52" y1="-399.28" x2="1047" y2="81.78"/><line class="cls-2" x1="-572.56" y1="-394.47" x2="1030.96" y2="86.59"/><line class="cls-2" x1="-588.59" y1="-389.65" x2="1014.93" y2="91.4"/><line class="cls-2" x1="-604.63" y1="-384.84" x2="998.89" y2="96.21"/><line class="cls-2" x1="-620.66" y1="-380.03" x2="982.86" y2="101.02"/><line class="cls-2" x1="-636.7" y1="-375.22" x2="966.82" y2="105.83"/><line class="cls-2" x1="-652.73" y1="-370.41" x2="950.79" y2="110.64"/><line class="cls-2" x1="-668.77" y1="-365.6" x2="934.75" y2="115.45"/><line class="cls-2" x1="-684.8" y1="-360.79" x2="918.72" y2="120.26"/><line class="cls-2" x1="-700.84" y1="-355.98" x2="902.68" y2="125.07"/></g></g><g id="Layer_3" data-name="Layer 3"><polygon class="cls-3" points="125.38 79.76 122.97 80.52 122.97 87.74 130.99 90.14 133.3 89.45 133.3 82.21 125.38 79.76"/><path class="cls-4" d="M125.15,83.73l-.6-.18a.19.19,0,0,0-.27.19v1a1.18,1.18,0,0,0,.83,1.12l.19.05a.33.33,0,0,0,.46-.34v-1A.86.86,0,0,0,125.15,83.73Z"/><path class="cls-4" d="M126.43,83a2.32,2.32,0,0,0-1.33,0l-.44.13c-.17,0-.34.29-.17.34l1.08.35a.65.65,0,0,0,.39,0l1.13-.34a.15.15,0,0,0,0-.29Z"/><path class="cls-4" d="M125.76,85.58V84.31a.53.53,0,0,1,.39-.51l.94-.29a.37.37,0,0,1,.48.36v1.28a.52.52,0,0,1-.37.5l-1,.29A.38.38,0,0,1,125.76,85.58Z"/><line class="cls-5" x1="36.78" y1="24" x2="38.29" y2="25.2"/><line class="cls-5" x1="46.31" y1="25.08" x2="47.39" y2="25.2"/><line class="cls-6" x1="76.87" y1="28.81" x2="78.54" y2="28.81"/><line class="cls-6" x1="98.58" y1="32.42" x2="99.73" y2="32.17"/><line class="cls-6" x1="119.46" y1="19.19" x2="120.47" y2="19.19"/><polyline class="cls-6" points="101.92 73.91 101.92 84.13 126.67 91.23 126.67 85.63"/><line class="cls-6" x1="72.52" y1="74.96" x2="71.41" y2="74.96"/><line class="cls-6" x1="51.37" y1="76.92" x2="50.15" y2="76.76"/><line class="cls-6" x1="30.11" y1="73.16" x2="28.45" y2="74.51"/><line class="cls-6" x1="20.43" y1="74.51" x2="18.74" y2="75.11"/><line class="cls-6" x1="10.72" y1="55.87" x2="12.41" y2="55.27"/><polyline class="cls-6" points="32.46 46.85 31.98 45.8 33.3 46.25"/><line class="cls-6" x1="45.32" y1="35.42" x2="46.31" y2="34.57"/><line class="cls-6" x1="62.34" y1="36.97" x2="63.39" y2="38.43"/><line class="cls-6" x1="71.41" y1="38.43" x2="72.86" y2="37.83"/><line class="cls-6" x1="92.9" y1="51.66" x2="94.91" y2="54.07"/><polyline class="cls-6" points="114.95 40.84 118.96 39.63 118.96 38.43 120.47 38.43"/><polygon class="cls-6" points="128.49 36.02 128.49 19.19 124.48 17.99 120.47 19.19 120.47 38.43 132.5 42.04 136.51 40.84 136.51 38.43 128.49 36.02"/><polygon class="cls-6" points="20.75 24 28.76 26.4 32.77 25.2 36.78 24 36.78 7.16 32.77 5.96 28.76 7.16 28.76 21.59 24.75 20.39 24.75 3.55 20.75 2.35 16.74 3.55 16.74 20.39 20.75 21.59 20.75 24"/><polygon class="cls-6" points="78.54 28.81 94.57 33.62 98.58 32.42 98.58 13.18 94.57 11.97 90.56 13.18 90.56 27.61 86.55 26.4 86.55 9.57 82.55 8.37 78.54 9.57 78.54 28.81"/><polyline class="cls-6" points="59.57 22.15 59.41 22.2 59.41 31.82 63.42 33.02 67.43 31.82 67.43 22.2 63.42 20.99 63.27 20.99 63.27 20.99 63.27 20.95 63.42 20.99 67.43 19.79 67.43 14.98 63.48 13.79 63.53 13.78 63.53 11.37"/><polyline class="cls-6" points="59.41 22.2 55.12 20.91 55.41 28.21 51.4 29.41 47.39 28.21 47.39 11.37 51.4 10.17 55.41 8.97 63.42 11.37 64.84 10.77"/><polyline class="cls-6" points="59.41 14.98 59.41 17.39 55.41 16.18 54.95 16.32 54.84 13.61 54.84 13.61 59.41 14.98"/><polygon class="cls-6" points="92.9 44.44 88.46 43.24 84.45 44.44 88.58 45.6 88.57 47.94 84.72 49.17 81.01 48.05 80.88 36.08 76.87 34.82 84.89 37.23 88.89 36.02 88.89 33.62 76.87 30.01 72.86 31.21 72.86 50.46 84.89 54.06 88.89 52.86 92.9 51.66 92.9 44.44"/><path class="cls-6" d="M115.45,15.58l-8-2.4-3.7,1.2-4,1.2V32.42l4,1.2V24l8,2.4V36l4,1.2,3.7-1.2V19.19l-4-1.2Zm-3.7,5.92-4.32-1.11v-2.5l4.32,1.3Z"/><polygon class="cls-6" points="33.3 46.25 41.31 48.65 45.32 47.45 45.32 45.05 41.31 43.84 41.31 39.03 45.32 37.83 45.32 35.42 41.31 34.22 41.31 31.82 45.32 30.61 45.32 28.21 37.31 25.8 33.3 27.01 33.3 46.25"/><polygon class="cls-6" points="58.33 38.18 62.34 36.98 62.34 34.57 54.33 32.16 50.32 33.37 46.31 34.57 46.31 39.38 50.32 40.58 50.32 45.39 54.33 46.6 54.33 49 50.32 47.8 46.31 49 46.31 51.41 54.33 53.81 58.33 52.61 62.34 51.41 62.34 46.6 58.33 45.39 58.33 40.58 54.33 39.38 54.33 36.98 58.33 38.18"/><polyline class="cls-6" points="110.79 39.63 110.79 37.27 110.94 37.23 102.93 34.82 98.92 36.02 94.91 37.23 94.91 54.06 98.92 55.27 102.93 54.06 102.93 39.63 98.92 38.43 106.94 40.84"/><polyline class="cls-6" points="107.09 40.79 106.94 40.84 106.94 57.67 110.94 58.88 114.95 57.67 114.95 40.84 110.94 39.63"/><path class="cls-6" d="M32,31.21,28,30v-2.4L15.94,24l-4,1.2V44.44l12,3.61,4-1.2V47l4-1.2V31.37m-8-.16V43l-4.59-1.13V30L15,28.81Z"/><polygon class="cls-6" points="71.41 38.43 67.4 37.23 63.39 38.43 63.39 57.67 67.4 58.88 71.41 57.67 71.41 38.43"/><polygon class="cls-6" points="42.13 57.52 42.13 72.11 38.13 70.75 38.13 53.91 34.12 52.71 30.11 53.91 30.11 73.16 46.14 77.97 50.15 76.77 50.15 57.52 46.14 56.32 42.13 57.52"/><path class="cls-6" d="M67.4,60.08l-12-3.61-4,1.2V76.92l12,3.6,4-1.2,4-1.2V63.69l-4-1.21Zm-4,15.52-4.58-1.26V62.48l-4.4-1.2,9,2.41Z"/><polygon class="cls-6" points="6.71 57.07 2.71 58.27 2.71 63.09 6.71 64.29 6.71 69.1 10.72 70.3 10.72 72.71 6.71 71.5 2.71 72.71 2.71 75.11 10.72 77.52 14.73 76.31 18.74 75.11 18.74 70.3 14.73 69.1 14.73 64.29 10.72 63.09 10.72 60.68 14.73 61.88 18.74 60.68 18.74 58.27 10.72 55.87 6.71 57.07"/><polygon class="cls-6" points="72.52 55.72 72.52 74.96 76.53 76.16 80.54 74.96 80.54 55.72 76.53 54.52 72.52 55.72"/><polyline class="cls-6" points="89.89 58.27 93.9 59.48 93.9 71.5 89.89 70.3 89.89 58.27"/><polyline class="cls-6" points="97.91 75.11 101.92 73.91 101.92 59.48 97.91 58.27 97.91 55.87 89.89 53.46 85.89 54.67 81.88 55.87"/><polyline class="cls-6" points="97.91 75.11 93.9 76.31 85.89 73.91 85.89 71.5 81.88 70.3 81.88 55.87 80.54 55.72"/><polygon class="cls-6" points="46.31 25.08 46.31 5.96 42.3 4.76 38.29 5.96 38.29 25.2 42.3 26.4 46.31 25.08"/><polyline class="cls-6" points="60.83 7.16 60.83 9.57 64.84 10.77"/><polyline class="cls-6" points="64.84 10.77 68.85 9.57 68.85 28.81 72.86 30.01 76.87 28.81 76.87 7.16 84.89 4.76 84.89 2.35 80.88 1.15 60.83 7.16"/><polyline class="cls-6" points="12.41 52.86 12.41 55.27 16.42 56.47"/><polyline class="cls-6" points="16.42 56.47 20.43 55.27 20.43 74.51 24.44 75.71 28.45 74.51 28.45 52.86 36.47 50.46 36.47 48.05 32.46 46.85 12.41 52.86"/></g></svg>